<?xml version="1.0" encoding="UTF-8"?>
<svg id="Layer_2" data-name="Layer 2" xmlns="http://www.w3.org/2000/svg" viewBox="0 0 391.59 364.41">
  <defs>
    <style>
      .cls-1 {
        fill: #fff;
      }

      .cls-1, .cls-2 {
        stroke-width: 0px;
      }

      .cls-2 {
        fill: #000;
        fill-rule: evenodd;
      }
    </style>
  </defs>
  <g id="Layer_6" data-name="Layer 6">
    <g>
      <path class="cls-2" d="M270.82,166.77c1.58-1.55,4.11-1.53,5.66.05,1.55,1.58,1.53,4.11-.05,5.66l-77.84,76.9c-1.56,1.53-4.06,1.53-5.61,0l-77.84-76.9c-1.58-1.55-1.6-4.08-.05-5.66,1.55-1.57,4.08-1.6,5.66-.05l75.03,74.13,75.03-74.13h0ZM270.82,115.03l-75.03,74.13-75.03-74.13c-1.58-1.55-4.11-1.53-5.66.05-1.55,1.58-1.53,4.11.05,5.66l77.84,76.9c1.55,1.53,4.05,1.53,5.61,0l77.84-76.9c1.58-1.55,1.6-4.08.05-5.66s-4.08-1.6-5.66-.05Z"/>
      <g>
        <path class="cls-1" d="M328.36,265.21l1.05-.74c-9.08,3.83-18.15,7.66-27.23,11.49l1.18-.37-30.31,4.07h1.23c-10.1-1.35-20.2-2.7-30.31-4.06l1.18.38c-9.08-3.83-18.15-7.66-27.23-11.49l1.03.76c-13.63-13.63-27.27-27.27-40.9-40.9l.74,1.05-11.49-27.23.37,1.18c-1.36-10.1-2.71-20.2-4.07-30.31v1.23c1.35-10.1,2.7-20.2,4.06-30.31l-.38,1.18,11.49-27.23-.76,1.03c5.94-7.69,11.88-15.38,17.83-23.07-22.7,22.43-45.4,44.85-68.09,67.28-3.25,3.21-6.5,6.42-9.74,9.63,7.69-5.94,15.38-11.88,23.07-17.83l-1.03.74c9.08-3.83,18.15-7.66,27.23-11.49l-1.17.37c10.1-1.36,20.2-2.71,30.31-4.07h-1.21c10.1,1.36,20.2,2.71,30.31,4.07l-1.17-.37c9.08,3.83,18.15,7.66,27.23,11.49l-1.03-.73c7.69,5.94,15.38,11.88,23.07,17.83-22.7-22.43-45.4-44.85-68.1-67.28-3.25-3.21-6.5-6.42-9.74-9.63,5.94,7.69,11.88,15.38,17.83,23.07l-.76-1.03,11.49,27.23-.38-1.18,4.07,30.31v-1.23c-1.37,10.1-2.72,20.2-4.08,30.31l.37-1.18c-3.83,9.08-7.66,18.15-11.49,27.23l.74-1.05c-13.63,13.63-27.27,27.27-40.9,40.9l1.03-.76c-9.08,3.83-18.15,7.66-27.23,11.49l1.18-.38c-10.1,1.36-20.2,2.71-30.31,4.07h1.23c-10.1-1.37-20.2-2.72-30.31-4.08l1.18.37c-9.08-3.83-18.15-7.66-27.23-11.49l1.05.74c-7.69-5.94-15.38-11.88-23.07-17.83,21.91,21.64,43.82,43.29,65.72,64.93,3.1,3.06,6.2,6.13,9.31,9.19,10.33,11.12,22.56,18.97,36.69,23.57,13.59,7.14,28.23,10.41,43.92,9.82,10.1-1.36,20.2-2.71,30.31-4.07,19.31-5.42,36.08-15.19,50.3-29.32,21.91-21.64,43.82-43.29,65.72-64.93,3.1-3.06,6.2-6.13,9.31-9.19,11.12-10.33,18.97-22.56,23.57-36.69,7.14-13.59,10.41-28.23,9.82-43.92.59-15.7-2.68-30.34-9.82-43.92-4.6-14.13-12.45-26.36-23.57-36.69l-23.07-17.83c-17.78-10.31-36.96-15.5-57.54-15.56-10.1,1.36-20.2,2.71-30.31,4.07-19.31,5.42-36.08,15.19-50.3,29.32-21.91,21.64-43.82,43.29-65.72,64.93-3.1,3.06-6.2,6.13-9.31,9.19h161.22c-18.53-18.3-37.05-36.61-55.58-54.91-6.48-6.4-12.86-12.93-19.45-19.22-2.59-2.47-20.67-16.47-23.59-18.2s-24.34-10.88-27.75-11.86c-5.69-1.64-5.14-.9-16.33-2.4-19.48-2.62-12.05-2.61-31.53.01-13.72,1.84-10.47.73-16.33,2.42-3.44.99-24.85,10.16-27.75,11.87-2.51,1.48-21.39,16-23.59,18.2-5.94,7.69-11.88,15.38-17.83,23.07l-.74,1.05c-1.92,4.54-3.83,9.08-5.75,13.62-2.54,4.75-4.57,9.68-6.11,14.8C3.28,141.7,0,166.81,0,169.66s3.3,28,4.08,30.92c1.27,4.76,6.22,14.99,6.13,14.79,8,18.96,3.15,9.1,6.5,14.65,0,.01,17.83,23.08,17.83,23.08.05.06.11.11.16.16,2.3,2.36,4.69,4.64,7.04,6.95,21.55,21.3,43.11,42.59,64.66,63.89,1.98,1.96,3.93,3.95,5.94,5.87,2.54,2.43,20.73,16.52,23.61,18.21s24.38,10.89,27.75,11.86c5.75,1.65,4.21.78,16.32,2.4,19.49,2.62,12.02,2.62,31.52,0,11.96-1.61,10.58-.75,16.32-2.4,3.37-.97,24.91-10.18,27.75-11.86s21.05-15.76,23.59-18.2c.54-.51,1.05-1.04,1.58-1.56,8.83-8.73,17.66-17.45,26.49-26.18,11.85-11.71,23.7-23.41,35.55-35.12,3.83-3.78,7.66-7.57,11.49-11.35.82-.81,1.65-1.61,2.46-2.43,3.41-3.47,15.56-19.16,18.08-23.32,3.36-5.55-1.5,4.32,6.5-14.65-.1.23,4.86-10.03,6.13-14.79.78-2.92,4.08-28.11,4.08-30.92.07-5.3-.6-10.56-2.03-15.77.09-5.64-.71-11.09-2.4-16.33-.98-3.41-10.17-24.88-11.86-27.75-1.5-2.54-15.97-21.37-18.2-23.59s-21.08-16.72-23.59-18.2c-2.9-1.71-24.31-10.88-27.75-11.87-5.86-1.69-2.61-.58-16.33-2.42-19.48-2.62-12.05-2.63-31.53-.01-11.2,1.51-10.64.76-16.33,2.4l-13.62,5.75c-5.45,1.15-10.34,3.31-14.66,6.49-13.28,7.16-23.95,16.95-31.98,29.36-10.08,11.01-16.88,23.93-20.4,38.77-4.75,15.15-5.43,30.31-2.04,45.46.69,15.17,5.2,29.3,13.53,42.39,5.94,7.69,11.88,15.38,17.83,23.07,14.22,14.13,30.99,23.9,50.3,29.32,10.1,1.36,20.2,2.71,30.31,4.07,20.58-.06,39.76-5.25,57.54-15.56Z"/>
        <path class="cls-1" d="M190.21,34.42c-21.91,21.65-43.82,43.29-65.72,64.94-3.1,3.06-6.2,6.13-9.31,9.19h161.22c-18.53-18.3-37.05-36.61-55.58-54.91-6.48-6.4-12.86-12.93-19.45-19.22-2.59-2.47-20.67-16.47-23.59-18.2s-24.34-10.88-27.75-11.86c-5.69-1.64-5.14-.9-16.33-2.4-19.48-2.62-12.05-2.61-31.53.01-13.75,1.85-10.46.73-16.33,2.42-3.44.99-24.85,10.16-27.75,11.87-2.51,1.48-21.39,16-23.59,18.2-5.94,7.69-11.88,15.38-17.83,23.07l-.74,1.05c-1.92,4.54-3.83,9.08-5.75,13.62-2.54,4.75-4.57,9.68-6.11,14.8C3.28,89.96,0,115.07,0,117.92s3.3,28,4.08,30.92c1.27,4.76,6.21,14.99,6.13,14.79,7.99,18.93,3.15,9.1,6.5,14.65,0,.01,17.83,23.08,17.83,23.08.05.06.11.11.16.16,2.3,2.36,4.69,4.64,7.04,6.95,21.55,21.3,43.11,42.59,64.66,63.89,1.98,1.96,3.93,3.95,5.94,5.87,2.54,2.43,20.73,16.52,23.61,18.21s24.38,10.89,27.75,11.86c5.75,1.65,4.21.78,16.32,2.4,19.49,2.62,12.02,2.62,31.52,0,11.96-1.61,10.58-.75,16.32-2.4,3.37-.97,24.91-10.18,27.75-11.86s21.05-15.76,23.59-18.2c.54-.51,1.05-1.04,1.58-1.56,8.83-8.73,17.66-17.45,26.49-26.18,11.85-11.71,23.7-23.41,35.55-35.12,3.83-3.78,7.66-7.57,11.49-11.35.82-.81,1.65-1.61,2.46-2.43,3.41-3.47,15.56-19.16,18.08-23.32,3.36-5.55-1.5,4.32,6.5-14.65-.1.23,4.86-10.03,6.13-14.79.78-2.92,4.08-28.11,4.08-30.92.07-5.3-.6-10.56-2.03-15.77.09-5.64-.71-11.09-2.4-16.33-.98-3.41-10.17-24.88-11.86-27.75-1.5-2.54-15.97-21.37-18.2-23.59s-21.08-16.72-23.59-18.2c-2.9-1.72-24.3-10.88-27.75-11.87-5.86-1.69-2.57-.57-16.33-2.42-19.48-2.62-12.05-2.63-31.53-.01-11.15,1.5-10.64.76-16.34,2.4-4.54,1.92-9.08,3.83-13.62,5.75-5.45,1.15-10.34,3.31-14.66,6.49-13.28,7.16-23.95,16.95-31.98,29.36-10.08,11.01-16.88,23.93-20.4,38.77-4.75,15.15-5.43,30.31-2.04,45.46.69,15.17,5.2,29.3,13.53,42.39,5.94,7.69,11.88,15.38,17.83,23.07,14.22,14.13,30.99,23.9,50.3,29.32,10.1,1.36,20.2,2.71,30.31,4.07,20.58-.06,39.76-5.25,57.54-15.56l1.05-.74-27.23,11.49,1.18-.36-30.31,4.07h1.23c-10.1-1.35-20.2-2.7-30.31-4.06l1.18.39c-9.08-3.83-18.15-7.66-27.23-11.49l1.03.76c-13.63-13.63-27.27-27.27-40.9-40.9l.74,1.05-11.49-27.23.37,1.18c-1.36-10.1-2.71-20.2-4.07-30.31v1.23c1.35-10.1,2.7-20.2,4.06-30.31l-.38,1.18,11.49-27.23-.76,1.03c5.94-7.69,11.88-15.38,17.83-23.07-22.7,22.43-45.4,44.85-68.1,67.28-3.25,3.21-6.5,6.42-9.74,9.63,7.69-5.94,15.38-11.88,23.07-17.83l-1.03.74,27.23-11.49-1.17.37c10.1-1.36,20.2-2.71,30.31-4.07h-1.21c10.1,1.36,20.2,2.71,30.31,4.07l-1.17-.37c9.08,3.83,18.15,7.66,27.23,11.49l-1.03-.73c7.69,5.94,15.38,11.88,23.07,17.83-22.7-22.43-45.4-44.85-68.1-67.28-3.25-3.21-6.5-6.42-9.74-9.63,5.94,7.69,11.88,15.38,17.83,23.07l-.76-1.03,11.49,27.23-.38-1.18,4.07,30.31v-1.23c-1.37,10.1-2.72,20.2-4.08,30.31l.37-1.18-11.49,27.23.74-1.05c-13.63,13.63-27.27,27.27-40.9,40.9l1.03-.76c-9.08,3.83-18.15,7.66-27.23,11.49l1.18-.38c-10.1,1.36-20.2,2.71-30.31,4.07h1.23c-10.1-1.37-20.2-2.73-30.31-4.08l1.18.37c-9.08-3.83-18.15-7.66-27.23-11.49l1.05.74c-7.69-5.94-15.38-11.88-23.07-17.83,21.91,21.64,43.82,43.29,65.73,64.93,3.1,3.06,6.2,6.13,9.31,9.19,10.33,11.12,22.56,18.97,36.69,23.57,13.59,7.14,28.23,10.41,43.92,9.82,10.1-1.36,20.2-2.71,30.31-4.07,19.31-5.42,36.08-15.19,50.3-29.32,21.91-21.65,43.82-43.29,65.72-64.94,3.1-3.06,6.2-6.13,9.31-9.19,11.12-10.33,18.97-22.56,23.57-36.69,7.14-13.59,10.41-28.23,9.82-43.92.59-15.7-2.68-30.34-9.82-43.92-4.6-14.13-12.45-26.36-23.57-36.69l-23.07-17.83c-17.78-10.31-36.96-15.5-57.54-15.56-10.1,1.36-20.2,2.71-30.31,4.07-19.31,5.42-36.08,15.19-50.3,29.32Z"/>
      </g>
    </g>
  </g>
</svg>