<?xml version="1.0" encoding="UTF-8"?>
<svg id="Layer_2" data-name="Layer 2" xmlns="http://www.w3.org/2000/svg" viewBox="0 0 163.68 136.65">
  <defs>
    <style>
      .cls-1 {
        fill: #fff;
        fill-rule: evenodd;
        stroke-width: 0px;
      }
    </style>
  </defs>
  <g id="Layer_6" data-name="Layer 6">
    <path class="cls-1" d="M156.87,52.89c1.58-1.55,4.11-1.53,5.66.05,1.55,1.58,1.53,4.11-.05,5.66l-77.84,76.9c-1.56,1.53-4.06,1.53-5.61,0L1.2,58.6c-1.58-1.55-1.6-4.08-.05-5.66,1.55-1.57,4.08-1.6,5.66-.05l75.03,74.13,75.03-74.13h0ZM156.87,1.15l-75.03,74.13L6.81,1.15c-1.58-1.55-4.11-1.53-5.66.05-1.55,1.58-1.53,4.11.05,5.66l77.84,76.9c1.55,1.53,4.05,1.53,5.61,0L162.48,6.86c1.58-1.55,1.6-4.08.05-5.66s-4.08-1.6-5.66-.05Z"/>
  </g>
</svg>